<svg fill="none" xmlns="http://www.w3.org/2000/svg" viewBox="0 0 103 60">
    <path d="M14.93.929h8.075V2.18c-.33.198-.703.396-1.12.593a4.856 4.856 0 01-1.22.363l-6.394 11.206v7.449c.44.044.868.164 1.286.362.44.176.846.374 1.22.594V24H6.624v-1.252c.373-.198.79-.385 1.252-.56a7.825 7.825 0 011.45-.396v-7.416L2.67 3.137a7.834 7.834 0 01-1.45-.396C.78 2.566.373 2.38 0 2.181V.93h10.81V2.18c-.307.176-.659.352-1.054.528a6.864 6.864 0 01-1.384.428l4.713 8.833 4.482-8.833c-.505-.11-.989-.253-1.45-.428a10.457 10.457 0 01-1.187-.528V.93zm6.468 14.831c0-1.34.198-2.538.593-3.592.418-1.077 1-1.989 1.747-2.736.77-.747 1.692-1.318 2.769-1.714 1.076-.395 2.296-.593 3.658-.593 1.538 0 2.857.22 3.955.66 1.12.417 2.033 1.01 2.736 1.779.725.747 1.252 1.659 1.582 2.736.33 1.054.494 2.208.494 3.46 0 1.34-.198 2.55-.593 3.626a7.27 7.27 0 01-1.747 2.702c-.747.747-1.67 1.319-2.768 1.714-1.077.396-2.297.593-3.659.593-1.494 0-2.79-.208-3.889-.626-1.099-.44-2.01-1.032-2.736-1.78a7.29 7.29 0 01-1.615-2.735c-.351-1.077-.527-2.241-.527-3.494zm5.109 0c0 .989.055 1.9.165 2.736.131.813.351 1.505.659 2.076a3.538 3.538 0 001.252 1.352c.527.307 1.209.461 2.044.461.483 0 .922-.11 1.318-.33.395-.241.736-.615 1.022-1.12.285-.527.494-1.209.626-2.044.154-.857.23-1.9.23-3.13 0-1.011-.065-1.923-.197-2.736-.11-.813-.319-1.505-.626-2.077a3.15 3.15 0 00-1.187-1.318c-.505-.33-1.142-.494-1.912-.494-.57 0-1.065.12-1.483.362-.417.22-.769.593-1.054 1.12-.286.506-.506 1.187-.66 2.044-.131.835-.197 1.868-.197 3.098zm16.36 1.714c0-1.384.033-2.67.1-3.856.065-1.187.098-2.439.098-3.757l-2.175-.264V8.312c.351-.132.78-.264 1.285-.396a19.091 19.091 0 011.615-.33c.55-.11 1.077-.197 1.582-.263.528-.088.967-.154 1.319-.198h1.12c0 1.648-.033 3.274-.099 4.878a112.29 112.29 0 00-.099 4.68c0 1.802.176 3.098.528 3.89.373.79 1.055 1.186 2.043 1.186.681 0 1.308-.253 1.879-.758.593-.528 1.077-1.363 1.45-2.505V9.86l-2.142-.264V8.312c.33-.132.736-.264 1.22-.396a17.59 17.59 0 011.548-.33c.55-.11 1.088-.197 1.615-.263.528-.088.99-.154 1.385-.198h1.12V21.66l2.175.264v1.153a9.865 9.865 0 01-1.153.396 65.88 65.88 0 01-1.45.395c-.506.11-1.011.198-1.516.264-.484.088-.923.154-1.319.198h-1.12l-.231-3.922h-.132a5.14 5.14 0 01-.593 1.417c-.286.461-.66.89-1.12 1.285-.44.374-.967.681-1.583.923a5.544 5.544 0 01-2.043.362c-.835 0-1.582-.11-2.241-.33a3.564 3.564 0 01-1.648-1.087c-.462-.527-.813-1.23-1.055-2.11-.242-.9-.363-2.032-.363-3.394zM82.442 24h-8.734v-1.285a9.26 9.26 0 01.824-.396c.285-.132.615-.264.988-.395v-7.746c0-1.384-.197-2.46-.593-3.23-.395-.79-1.099-1.186-2.11-1.186a3.16 3.16 0 00-2.174.824c-.594.527-1.044 1.252-1.352 2.175v9.163c.352.088.66.197.923.33.286.109.582.263.89.46V24H62.37v-1.285c.55-.286 1.274-.55 2.175-.791V9.86l-2.175-.264V8.312c.285-.132.659-.253 1.12-.363.462-.132.956-.253 1.483-.363.55-.11 1.1-.197 1.648-.263a27.301 27.301 0 011.55-.198h1.12v3.395h.033c.462-.923 1.154-1.714 2.076-2.373.923-.681 2.044-1.022 3.362-1.022.857 0 1.626.11 2.308.33.68.197 1.252.56 1.713 1.087.484.528.846 1.242 1.088 2.143.264.878.395 2 .395 3.361v7.878c.88.153 1.605.417 2.176.79V24zm9.663-16.875c1.429 0 2.615.154 3.56.461.945.286 1.659.649 2.142 1.088 1.033-1.12 2.22-1.9 3.56-2.34.154.11.307.275.461.494.154.198.286.418.396.66.11.241.198.483.263.725.066.241.099.44.099.593l-.428.79h-3.46c.24.309.46.715.658 1.22.22.484.33 1.066.33 1.747 0 .725-.154 1.406-.462 2.044-.307.637-.78 1.208-1.417 1.714-.615.483-1.406.867-2.373 1.153-.945.286-2.054.429-3.329.429h-1.021a6.4 6.4 0 01-.758-.1 7.314 7.314 0 00-.297.495 1.17 1.17 0 00-.132.527c0 .374.264.67.791.89.528.22 1.198.418 2.01.594.814.175 1.682.373 2.604.593.945.22 1.824.516 2.637.89.813.351 1.494.824 2.044 1.417.549.571.835 1.318.857 2.241.022.88-.198 1.66-.66 2.34-.461.681-1.098 1.253-1.911 1.714-.791.483-1.736.846-2.835 1.088-1.076.264-2.23.395-3.46.395-1.45 0-2.692-.12-3.725-.362-1.01-.22-1.834-.528-2.472-.923-.637-.396-1.11-.846-1.417-1.351a3.17 3.17 0 01-.428-1.582c0-.616.12-1.143.362-1.582.242-.44.582-.825 1.022-1.154.44-.33.945-.604 1.516-.824a18.59 18.59 0 011.945-.593 7.002 7.002 0 01-.956-.33 4.22 4.22 0 01-.824-.461 2.783 2.783 0 01-.594-.66 1.733 1.733 0 01-.23-.89c0-.285.088-.56.263-.823.176-.286.407-.539.693-.758.285-.242.593-.45.922-.627.33-.197.66-.362.99-.494-1.385-.308-2.484-.9-3.297-1.78-.813-.9-1.22-2.043-1.22-3.427 0-1.649.682-2.934 2.044-3.857 1.363-.923 3.208-1.384 5.537-1.384zm4.153 19.38c0-.593-.186-1.077-.56-1.45-.352-.352-.813-.648-1.384-.89a12.88 12.88 0 00-1.945-.56 37.794 37.794 0 01-2.11-.594c-.57.44-.977.88-1.219 1.319-.242.439-.362.966-.362 1.582 0 1.01.34 1.79 1.021 2.34.704.571 1.681.857 2.934.857 1.23 0 2.142-.264 2.735-.791.594-.506.89-1.11.89-1.813zM89.271 12.53c0 1.143.187 2.01.56 2.604.396.593 1.154.89 2.274.89 1.077 0 1.813-.297 2.209-.89.417-.615.626-1.483.626-2.604 0-1.186-.209-2.065-.626-2.636-.418-.594-1.154-.89-2.209-.89-1.098 0-1.845.285-2.24.857-.396.57-.594 1.46-.594 2.67zM8.306 56.792c.593.088 1.175.22 1.747.395.593.154 1.12.34 1.581.56V59H.66v-1.252c.418-.242.857-.44 1.319-.594.483-.154.944-.274 1.384-.362V38.137a9.998 9.998 0 01-1.45-.363 8.278 8.278 0 01-1.253-.593V35.93h4.153c.879 0 1.879-.044 3-.132a41.096 41.096 0 013.13-.132c1.165 0 2.296.12 3.395.363 1.12.22 2.11.604 2.966 1.153a6.164 6.164 0 012.11 2.208c.527.901.79 2.033.79 3.395 0 1.297-.263 2.417-.79 3.362a6.77 6.77 0 01-2.044 2.34c-.857.615-1.845 1.077-2.966 1.384-1.12.286-2.274.429-3.46.429H9.623a9.552 9.552 0 00-.791-.033 5.6 5.6 0 01-.527-.066v6.592zm1.78-18.985c-.44 0-.792.022-1.055.066a4.2 4.2 0 00-.725.132v10.02c.197.066.494.11.89.132h.955c.594 0 1.165-.1 1.714-.297a3.894 3.894 0 001.45-.923c.44-.417.791-.956 1.055-1.615.264-.66.396-1.45.396-2.373 0-1.758-.429-3.054-1.286-3.89-.857-.834-1.988-1.252-3.395-1.252zm20.943 8.504c-.264.132-.572.351-.923.659-.352.308-.67.813-.956 1.516v8.438c.44.044.879.131 1.318.263.44.11.88.286 1.319.528V59h-9.558v-1.285c.395-.22.769-.385 1.12-.495.352-.11.703-.209 1.055-.296V44.86l-2.175-.264v-1.285c.351-.154.78-.297 1.285-.429a19.07 19.07 0 011.615-.33 23.7 23.7 0 011.582-.263l1.319-.165h1.12v4.384h.132c.176-.484.428-.99.758-1.517a8.528 8.528 0 011.22-1.45c.46-.44.966-.79 1.516-1.054a3.598 3.598 0 011.713-.363c.242.308.45.747.627 1.318.175.55.318 1.077.428 1.582v1.286H31.03zm6.24 4.45c0-1.341.197-2.539.593-3.593.417-1.077 1-1.989 1.746-2.736.77-.747 1.692-1.318 2.769-1.714 1.076-.395 2.296-.593 3.658-.593 1.538 0 2.857.22 3.955.66 1.121.417 2.033 1.01 2.736 1.779.725.747 1.252 1.659 1.582 2.736.33 1.054.494 2.208.494 3.46 0 1.34-.197 2.55-.593 3.626a7.27 7.27 0 01-1.747 2.702c-.747.748-1.67 1.319-2.768 1.714-1.077.396-2.296.593-3.659.593-1.494 0-2.79-.208-3.889-.626-1.099-.44-2.01-1.032-2.735-1.78a7.29 7.29 0 01-1.615-2.735c-.352-1.077-.528-2.241-.528-3.494zm5.108 0c0 .988.055 1.9.165 2.735.131.813.351 1.505.659 2.076a3.537 3.537 0 001.252 1.352c.528.307 1.209.461 2.044.461.483 0 .923-.11 1.318-.33.396-.241.736-.615 1.022-1.12.285-.528.494-1.209.626-2.044.154-.857.23-1.9.23-3.13 0-1.012-.065-1.923-.197-2.736-.11-.813-.319-1.505-.626-2.077a3.15 3.15 0 00-1.187-1.318c-.505-.33-1.142-.495-1.911-.495-.572 0-1.066.121-1.483.363-.418.22-.77.593-1.055 1.12-.286.506-.506 1.187-.66 2.044-.131.835-.197 1.868-.197 3.098zm14.091-7.45a8.678 8.678 0 012.637-1.12v-2.67c.132-.132.351-.252.659-.362.33-.132.67-.242 1.022-.33.373-.11.736-.209 1.087-.297.352-.087.638-.153.857-.197h1.12v4.185h4.351v2.077h-4.35v8.536c0 1.363.165 2.307.494 2.835.352.527.923.79 1.714.79.396 0 .835-.021 1.319-.065a6.388 6.388 0 001.384-.33l.23 1.088c-.197.198-.494.406-.89.626-.373.22-.812.429-1.318.626-.483.198-1.022.363-1.615.495a8.044 8.044 0 01-1.813.197c-1.428 0-2.493-.373-3.197-1.12-.703-.747-1.054-1.956-1.054-3.626V44.597h-2.637v-1.285zm28.973 10.91v1.252c.022.352.055.726.099 1.121l2.274.33v1.153a6.52 6.52 0 01-1.088.396c-.44.132-.912.263-1.417.395-.483.11-.967.198-1.45.264-.483.088-.912.154-1.285.198h-1.121a4.838 4.838 0 01-.395-1.517 33.51 33.51 0 01-.1-1.845h-.164c-.11.44-.297.868-.56 1.285a4.749 4.749 0 01-1.022 1.088c-.396.307-.868.56-1.418.758-.549.198-1.164.297-1.845.297-.725 0-1.395-.11-2.01-.33a5.08 5.08 0 01-1.616-.923 4.294 4.294 0 01-1.087-1.417c-.264-.572-.396-1.209-.396-1.912 0-.989.187-1.801.56-2.439.374-.637.956-1.153 1.747-1.549.813-.417 1.846-.725 3.099-.923 1.274-.197 2.812-.34 4.614-.428.175-1.89.099-3.274-.231-4.153-.33-.879-1.044-1.318-2.142-1.318a5.19 5.19 0 00-1.879.33l-1.55 3.954h-1.45c-.175-.263-.35-.56-.527-.89a54.142 54.142 0 01-.461-1.087 24.39 24.39 0 01-.363-1.187c-.088-.395-.153-.78-.197-1.153.835-.572 1.911-1.022 3.23-1.352a17.205 17.205 0 014.185-.494c1.253 0 2.275.143 3.066.428.79.264 1.406.638 1.845 1.121.462.462.78 1.01.956 1.648.176.637.264 1.318.264 2.043 0 1.319-.033 2.516-.1 3.593a78.5 78.5 0 00-.065 3.263zm-7.416 2.538c.462 0 .857-.088 1.187-.264.33-.176.604-.384.824-.626.241-.242.417-.505.527-.791.132-.286.23-.538.297-.758v-3.296c-1.033.022-1.879.088-2.538.198-.66.11-1.176.296-1.55.56a1.97 1.97 0 00-.79.956c-.132.373-.198.835-.198 1.384 0 .835.198 1.483.593 1.945.396.461.945.692 1.648.692z" fill="#F87171"/>
</svg>