<svg
    viewBox="0 0 245 245"
    xmlns="http://www.w3.org/2000/svg"
    class=""
>
    <path
        fill="#F87171"
        fill-rule="evenodd"
        clip-rule="evenodd"
        d="M118.008 13.5808C118.193 11.543 118.563 9.59782 119.304 7.83789C120.045 6.07797 120.972 4.59592 122.176 3.39177C123.38 2.18761 124.769 1.26134 126.344 0.705571C128.011 0.149805 129.771 -0.128082 131.809 0.0571732C133.847 0.242428 135.607 0.705565 137.089 1.53921C138.571 2.37286 139.868 3.4844 140.794 4.87381C141.813 6.26323 142.461 7.83789 142.924 9.69044C143.388 11.543 143.48 13.4882 143.295 15.526C143.11 17.5638 142.739 19.509 141.998 21.2689C141.257 23.0288 140.331 24.5109 139.127 25.715C137.923 26.9192 136.533 27.8455 134.958 28.4012C133.291 28.957 131.531 29.2349 129.493 29.0496C127.456 28.8644 125.696 28.4012 124.214 27.5676C122.732 26.7339 121.435 25.6224 120.509 24.233C119.49 22.8436 118.841 21.2689 118.378 19.4163C118.008 17.6564 117.822 15.7112 118.008 13.5808ZM122.268 13.9513C122.176 15.6186 122.176 17.2859 122.454 18.768C122.732 20.3426 123.102 21.6394 123.751 22.8436C124.399 24.0477 125.233 24.974 126.251 25.715C127.27 26.456 128.567 26.9192 130.049 27.0118C131.439 27.1044 132.643 26.9192 133.662 26.2708C134.681 25.715 135.607 24.8814 136.348 23.7698C137.089 22.6583 137.645 21.4541 138.108 19.9721C138.571 18.4901 138.849 16.9154 138.941 15.1555C139.034 13.4882 139.034 11.8209 138.756 10.3388C138.571 8.76417 138.108 7.46739 137.459 6.26323C136.811 5.05907 135.977 4.13279 134.958 3.39177C133.94 2.65074 132.643 2.18761 131.161 2.09498C129.679 2.00236 128.382 2.18761 127.363 2.74337C126.251 3.29914 125.418 4.13279 124.677 5.24432C123.936 6.35585 123.38 7.56001 123.009 9.04205C122.639 10.6167 122.361 12.284 122.268 13.9513ZM101.705 2.0023L110.319 0.242384L110.597 1.35391C109.671 2.09493 108.745 2.55807 107.818 2.92858L103.187 18.1195L105.225 27.7528C106.244 27.6602 107.355 27.7528 108.374 28.0307L108.652 29.1422L98.6483 31.18L98.3705 30.0685C99.2041 29.4201 100.223 28.8643 101.427 28.4938L99.482 18.9532L88.7372 6.91157C88.0888 6.91157 87.533 6.91157 86.9773 6.81894L85.31 6.54106L85.0321 5.42953L95.4064 3.29909L95.6843 4.41063C95.4243 4.60557 95.1644 4.75492 94.8725 4.92265L94.8723 4.92274L94.8716 4.92317C94.7477 4.99437 94.618 5.0689 94.4801 5.15164C94.017 5.42953 93.4612 5.70741 92.9054 5.98529L101.705 16.1743L105.318 3.39172C104.669 3.39172 104.113 3.39172 103.558 3.29909C103.28 3.25278 103.002 3.22962 102.724 3.20646C102.446 3.18331 102.168 3.16015 101.89 3.11384L101.705 2.0023ZM164.785 7.83795L155.337 4.04022L154.873 5.15175C155.707 5.9854 156.633 6.72642 157.56 7.28219L151.261 23.1215C150.149 25.993 150.057 28.4939 151.168 30.5317C152.28 32.5695 154.318 34.2368 157.467 35.441C158.764 35.9967 160.061 36.2746 161.265 36.3673C162.469 36.4599 163.673 36.2746 164.692 35.8115C165.711 35.3483 166.73 34.7 167.563 33.681C168.397 32.6621 169.138 31.3654 169.786 29.7907L175.715 14.8776C176.27 14.9703 176.826 14.9703 177.382 14.9703C178.03 14.9703 178.586 14.8776 179.142 14.785L179.605 13.6735L171.639 10.5242L171.176 11.6357C171.361 11.821 171.546 12.0294 171.732 12.2378C171.917 12.4462 172.102 12.6546 172.287 12.8398C172.751 13.2104 173.214 13.5809 173.677 14.044L167.749 28.8644C166.73 31.3654 165.433 32.94 163.951 33.5884C162.469 34.2368 160.709 34.1442 158.764 33.4032C157.745 32.94 156.911 32.4769 156.17 31.9211C155.429 31.3654 154.966 30.717 154.596 29.9759C154.318 29.2349 154.132 28.4013 154.225 27.3824C154.225 26.4561 154.503 25.2519 155.059 23.9551L161.079 8.76423C161.15 8.77599 161.219 8.78776 161.287 8.79933C161.754 8.87889 162.169 8.94948 162.654 8.94948H164.321L164.785 7.83795ZM202.762 30.3465L209.524 35.8115L208.783 36.7378C207.393 36.6451 206.282 36.3673 205.17 35.9041L189.053 56.0043L187.293 54.6149L189.794 28.3087L190.535 24.8814L190.442 24.7888L188.775 27.475L176.826 42.2954C177.474 43.2217 178.03 44.2406 178.308 45.3521L177.567 46.2784L170.805 40.8134L171.546 39.8871L171.547 39.8871C172.102 39.9798 172.658 40.0724 173.214 40.2576C173.769 40.4429 174.325 40.6281 174.974 40.906L189.423 23.0289C189.285 22.7973 189.146 22.5426 189.007 22.2879C188.868 22.0331 188.729 21.7784 188.59 21.5468C188.312 20.9914 188.127 20.5285 187.942 20.0656L187.941 20.0648L188.682 19.2312L193.962 23.492L191.832 46.2784L191.091 50.1688L191.183 50.2614L193.221 47.4826L203.41 34.7926C203.132 34.2368 202.854 33.6811 202.669 33.2179C202.391 32.6621 202.206 32.199 202.021 31.6432L202.762 30.3465ZM206.374 76.8455C206.93 77.3086 207.486 77.5865 208.042 77.8644L216.008 72.9551C216.471 73.4183 216.841 73.7888 217.212 73.974C217.49 74.1593 217.86 74.3445 218.138 74.4371L219.064 73.7888L213.599 65.6375L212.673 66.2859C212.858 66.8417 213.044 67.4901 213.229 68.1385C213.414 68.7869 213.692 69.3426 214.062 69.991L207.301 74.5298C207.232 74.4953 207.163 74.4737 207.089 74.4505C206.965 74.4115 206.827 74.3682 206.652 74.2519C206.282 74.0666 206.004 73.8814 205.633 73.6035L205.633 73.6033C205.263 73.3255 204.892 73.0477 204.522 72.6772L204.522 72.6771C204.151 72.3066 203.781 71.9362 203.503 71.4731C202.762 70.2689 202.206 69.0648 202.021 67.6753C201.836 66.2859 201.928 64.9891 202.299 63.5997C202.669 62.2103 203.318 60.9135 204.337 59.6167C205.263 58.32 206.56 57.1158 208.134 56.0969C209.894 54.8927 211.561 54.1517 213.136 53.6886C214.711 53.3181 216.193 53.1328 217.582 53.3181C218.879 53.4107 220.083 53.8738 221.195 54.6148C222.214 55.3559 223.14 56.2821 223.881 57.3937L223.881 57.3942C224.252 57.9498 224.622 58.5054 224.992 59.1536C225.363 59.7094 225.548 60.1725 225.548 60.543L221.936 65.4523L222.492 66.2859L223.974 65.5449C224.251 65.406 224.529 65.2439 224.807 65.0818L224.808 65.0816C225.085 64.9195 225.363 64.7575 225.641 64.6186C226.044 64.4171 226.447 64.1669 226.815 63.9386L226.815 63.9383L226.818 63.9367C226.956 63.8509 227.089 63.7682 227.216 63.6924C227.308 63.6309 227.395 63.572 227.478 63.5156L227.623 63.4163L227.625 63.4149L227.626 63.4145C227.97 63.1796 228.241 62.9943 228.512 62.8587C228.42 61.8398 228.049 60.7283 227.586 59.6167C227.03 58.5052 226.382 57.2084 225.363 55.7264C224.437 54.337 223.233 53.0402 221.936 52.0213C220.546 50.9097 219.064 50.1687 217.397 49.7982C215.73 49.4277 213.877 49.4277 211.932 49.7982C209.987 50.1687 207.949 51.095 205.726 52.577C203.688 53.9665 202.021 55.4485 200.909 57.0232C199.705 58.5978 198.964 60.1725 198.686 61.8398C198.316 63.5071 198.408 65.1744 198.871 66.9343C199.335 68.6942 200.168 70.4542 201.372 72.2141C201.743 72.7699 202.206 73.3256 202.762 73.8814L202.762 73.8815C203.318 74.4372 203.873 74.993 204.522 75.4561C205.17 76.0118 205.726 76.475 206.374 76.8455ZM215.915 100.095C216.008 100.836 216.008 101.484 215.915 102.133C215.87 102.445 215.847 102.758 215.825 103.06V103.06L215.825 103.061C215.801 103.385 215.778 103.698 215.73 103.985L214.618 104.171L212.488 93.4257L213.599 93.2405C213.871 93.5799 214.092 93.969 214.301 94.3349L214.301 94.3353L214.302 94.3361L214.302 94.3363L214.302 94.3366C214.378 94.4695 214.452 94.5993 214.526 94.7225C214.803 95.2783 214.989 95.7414 215.174 96.2972L238.516 91.6658V91.6652C238.516 91.0171 238.516 90.4615 238.609 89.9059L238.887 88.2386L239.998 88.0534L240.739 91.5732C240.924 92.5921 241.202 93.7963 241.573 95.0004C241.943 96.2046 242.221 97.4087 242.406 98.5203C242.684 99.817 242.777 101.114 242.777 102.411C242.777 103.707 242.499 104.912 242.036 105.93C241.573 107.042 240.832 107.968 239.905 108.802C238.887 109.636 237.59 110.191 236.015 110.469C234.44 110.747 233.051 110.747 231.847 110.377C230.643 110.006 229.531 109.358 228.605 108.524C227.679 107.69 226.938 106.579 226.382 105.375C225.826 104.171 225.363 102.874 225.085 101.484C225.085 101.45 225.073 101.392 225.057 101.317C225.03 101.188 224.992 101.012 224.992 100.836C224.942 100.686 224.919 100.535 224.894 100.37L224.894 100.37L224.894 100.37L224.894 100.37C224.873 100.23 224.85 100.079 224.807 99.9097C224.715 99.6318 224.715 99.2613 224.715 98.9834C224.715 98.8304 224.686 98.7055 224.661 98.5932C224.641 98.5015 224.622 98.4183 224.622 98.335L215.915 100.095ZM239.917 96.9398L239.917 96.9396C239.877 96.8079 239.841 96.6873 239.813 96.5751C239.72 96.2046 239.628 95.8341 239.442 95.4636L226.66 97.9645V98.5203C226.66 98.6592 226.683 98.7981 226.706 98.9371C226.729 99.076 226.752 99.215 226.752 99.3539C226.752 99.4929 226.776 99.6318 226.799 99.7707C226.822 99.9097 226.845 100.049 226.845 100.188C226.938 100.465 226.938 100.651 226.938 100.836C227.123 101.762 227.401 102.596 227.864 103.337C228.234 104.078 228.79 104.726 229.531 105.282C230.18 105.745 231.013 106.116 231.94 106.301C232.866 106.486 233.885 106.486 235.089 106.208C237.219 105.745 238.701 104.819 239.535 103.43C240.461 102.04 240.646 100.28 240.183 98.0571C240.119 97.6051 240.009 97.2432 239.917 96.9398ZM218.045 126.401C218.231 125.845 218.416 125.29 218.601 124.641L228.79 125.475L228.512 129.273C227.864 129.489 227.247 129.737 226.643 129.979L226.641 129.98L226.641 129.98C226.21 130.153 225.787 130.323 225.363 130.477C224.437 130.847 223.418 131.311 222.492 131.774C221.473 132.237 220.546 132.7 219.62 133.256C219.062 133.59 218.504 133.959 217.926 134.34L217.926 134.34L217.925 134.341C217.544 134.593 217.154 134.851 216.749 135.108L215.544 136.59L215.174 141.5L216.193 141.592L217.49 139.462C218.242 138.996 218.98 138.53 219.71 138.07L219.711 138.07L219.712 138.069L219.717 138.066C220.872 137.337 222.006 136.622 223.14 135.942C224.992 134.83 226.938 133.719 228.79 132.7C229.253 134.46 230.087 135.942 231.291 137.053C232.495 138.165 234.07 138.721 236.015 138.906C237.405 138.999 238.609 138.813 239.628 138.443C240.646 138.072 241.48 137.424 242.221 136.683C242.87 135.849 243.425 134.923 243.796 133.811C244.166 132.7 244.444 131.496 244.537 130.199C244.629 128.995 244.629 127.791 244.629 126.495V126.494C244.629 125.197 244.629 124.086 244.722 122.974L245 119.454L243.796 119.362C243.753 119.447 243.706 119.537 243.656 119.631L243.654 119.635L243.652 119.639L243.652 119.639L243.652 119.64C243.484 119.956 243.289 120.326 243.147 120.751C242.962 121.214 242.777 121.862 242.592 122.511L218.879 120.844L218.601 119.176C218.53 118.747 218.403 118.318 218.264 117.847L218.264 117.846L218.233 117.743L218.203 117.639C218.181 117.566 218.16 117.492 218.138 117.416L216.934 117.324L216.193 127.883L217.397 127.976C217.675 127.513 217.86 126.957 218.045 126.401L218.045 126.401ZM242.555 128.18V128.18L242.555 128.18C242.529 128.472 242.499 128.811 242.499 129.18C242.406 130.94 241.851 132.422 240.924 133.626C239.905 134.645 238.423 135.201 236.478 135.016C234.533 134.923 233.051 134.275 231.94 133.07C230.828 131.866 230.365 130.384 230.457 128.532L230.643 125.66L242.499 126.494C242.592 126.772 242.592 127.235 242.592 127.605C242.592 127.765 242.575 127.959 242.555 128.18ZM228.142 147.798C230.087 148.539 231.847 149.466 233.236 150.577C234.718 151.689 235.83 153.078 236.664 154.467C237.497 155.949 237.96 157.524 238.146 159.284C238.238 161.044 237.96 162.804 237.312 164.656C236.571 166.509 235.645 168.084 234.441 169.288C233.236 170.492 231.847 171.418 230.18 171.974C228.605 172.53 226.845 172.808 224.993 172.715C223.14 172.622 221.195 172.252 219.25 171.511C217.304 170.77 215.544 169.844 214.155 168.732C212.673 167.621 211.562 166.231 210.728 164.842C209.894 163.36 209.431 161.785 209.246 160.025C209.153 158.265 209.431 156.505 210.079 154.653C210.82 152.8 211.747 151.225 212.951 150.021C214.155 148.817 215.545 147.891 217.212 147.335C218.786 146.779 220.546 146.501 222.399 146.594C224.251 146.687 226.197 147.057 228.142 147.798ZM226.66 151.874C225.085 151.318 223.51 150.855 221.936 150.67C220.361 150.484 218.972 150.577 217.675 150.855C216.378 151.133 215.267 151.689 214.248 152.522C213.229 153.356 212.488 154.467 211.932 155.857C211.469 157.154 211.376 158.358 211.654 159.562C211.932 160.766 212.488 161.878 213.321 162.804C214.155 163.73 215.174 164.749 216.471 165.583C217.768 166.416 219.25 167.157 220.824 167.713C222.399 168.269 223.974 168.732 225.548 168.917C227.123 169.103 228.512 169.103 229.809 168.825C231.106 168.547 232.217 167.991 233.236 167.157C234.255 166.324 234.996 165.212 235.552 163.823C236.108 162.433 236.2 161.137 235.923 159.932C235.645 158.728 235.089 157.617 234.255 156.69C233.422 155.672 232.31 154.838 231.013 154.004C229.717 153.171 228.234 152.43 226.66 151.874ZM201.28 173.549L194.611 182.626L195.537 183.182C196.093 182.811 196.556 182.441 197.019 182.07C197.262 181.876 197.505 181.656 197.762 181.424L197.762 181.424C197.994 181.214 198.237 180.994 198.501 180.774L217.675 194.946L214.062 199.855L208.227 198.188L207.578 199.021C207.917 199.445 208.334 199.791 208.828 200.202L208.828 200.202L208.829 200.202L208.829 200.202L208.968 200.318C209.43 200.688 209.985 201.15 210.539 201.612L210.543 201.615C210.82 201.846 211.075 202.055 211.329 202.263L211.331 202.264C211.585 202.472 211.84 202.68 212.117 202.912C212.58 203.375 213.043 203.745 213.507 204.023L227.308 185.22C227.038 185.058 226.769 184.865 226.481 184.658L226.48 184.658C226.274 184.51 226.058 184.355 225.826 184.201C225.548 184.016 225.247 183.83 224.946 183.645C224.645 183.46 224.344 183.275 224.066 183.089C223.788 182.904 223.487 182.719 223.186 182.534C222.885 182.348 222.584 182.163 222.306 181.978C221.95 181.74 221.594 181.541 221.262 181.355L221.262 181.355C221.076 181.251 220.898 181.151 220.732 181.051L220.176 181.885L223.51 186.98L219.898 191.889L200.724 177.717C201.095 177.161 201.372 176.513 201.558 175.957C201.781 175.51 201.945 175.004 202.096 174.533C202.133 174.419 202.17 174.306 202.206 174.197L201.28 173.549ZM185.718 191.889L192.573 186.239L193.314 187.165C192.851 188.091 192.295 188.925 191.739 189.758L200.631 216.62L199.705 217.361L175.066 203.375C174.764 203.556 174.461 203.698 174.133 203.852L174.132 203.853C173.958 203.934 173.777 204.019 173.584 204.116C173.121 204.301 172.565 204.486 172.102 204.579L171.361 203.653L179.327 197.076L180.068 198.002C179.994 198.125 179.92 198.255 179.845 198.388L179.844 198.388C179.636 198.755 179.414 199.145 179.142 199.484C178.956 199.716 178.794 199.948 178.632 200.179L178.632 200.18C178.47 200.411 178.308 200.642 178.123 200.874L184.885 204.857L192.295 198.836L189.701 191.518C188.775 192.074 187.663 192.63 186.459 193L185.718 191.889ZM193.036 200.874L186.83 205.968L194.703 210.507L197.482 212.73L197.575 212.637L196.093 209.303L193.036 200.874ZM144.777 242.834L153.299 240.426L153.021 239.407C152.743 239.407 152.465 239.384 152.187 239.361C151.909 239.337 151.631 239.314 151.354 239.314C150.989 239.254 150.625 239.272 150.235 239.293C150.03 239.303 149.817 239.314 149.594 239.314L152.28 226.254L161.82 235.794C161.472 235.968 161.161 236.179 160.863 236.38C160.685 236.5 160.511 236.617 160.338 236.721C159.875 236.999 159.505 237.276 159.134 237.554L159.134 237.554L159.597 238.758L169.786 235.794L169.509 234.683C169.231 234.683 168.953 234.66 168.675 234.637C168.397 234.613 168.119 234.59 167.841 234.59C167.285 234.59 166.73 234.59 166.081 234.683L154.41 223.475L151.724 214.027C152.836 213.471 153.762 212.915 154.595 212.174L154.318 211.063L144.499 213.842L144.777 214.953C145.796 215.138 146.907 215.231 147.926 215.046L150.612 224.494L147.185 239.963C146.259 240.333 145.333 240.982 144.499 241.723L144.777 242.834ZM136.44 230.144C136.44 232.275 136.163 234.127 135.607 235.98C135.051 237.74 134.217 239.314 133.198 240.611C132.087 241.908 130.79 242.927 129.216 243.668C127.641 244.409 125.881 244.779 123.843 244.779C121.805 244.779 120.045 244.501 118.471 243.76C116.896 243.019 115.507 242.093 114.488 240.796C113.376 239.5 112.543 238.017 111.987 236.258C111.431 234.498 111.061 232.552 111.061 230.515C111.061 228.384 111.338 226.532 111.894 224.679C112.45 222.919 113.284 221.345 114.302 220.048C115.414 218.751 116.711 217.732 118.285 216.991C119.86 216.25 121.62 215.879 123.658 215.879C125.696 215.879 127.456 216.157 129.03 216.898C130.605 217.639 131.994 218.566 133.013 219.862C134.125 221.159 134.958 222.641 135.514 224.401C136.07 226.161 136.44 228.106 136.44 230.144ZM132.18 230.237C132.18 228.569 131.994 226.902 131.624 225.42C131.253 223.938 130.698 222.641 129.957 221.53C129.215 220.418 128.289 219.492 127.178 218.936C126.066 218.288 124.769 218.01 123.287 218.01C121.898 218.01 120.694 218.38 119.767 219.029C118.749 219.677 117.915 220.603 117.267 221.715C116.618 222.827 116.155 224.123 115.877 225.698C115.599 227.273 115.414 228.847 115.414 230.515C115.414 232.182 115.599 233.849 115.97 235.331C116.34 236.813 116.896 238.11 117.637 239.222C118.378 240.333 119.304 241.259 120.416 241.815C121.527 242.464 122.824 242.741 124.306 242.741C125.788 242.741 126.992 242.371 128.011 241.723C129.03 241.074 129.864 240.148 130.512 239.036C131.161 237.925 131.624 236.628 131.902 235.053C132.087 233.571 132.18 231.904 132.18 230.237ZM90.4045 240.148L100.13 243.019L100.594 241.908C99.6672 241.074 98.741 240.426 97.722 239.963L102.631 223.66C103.558 220.696 103.372 218.195 102.076 216.25C100.871 214.305 98.6483 212.823 95.4064 211.897C94.0169 211.526 92.7202 211.341 91.516 211.341C90.3118 211.341 89.2003 211.619 88.1814 212.174C87.1625 212.73 86.3289 213.564 85.4952 214.583C84.6616 215.694 84.0132 216.991 83.55 218.658L78.9186 234.035H78.9181C78.3625 234.035 77.8069 234.035 77.2514 234.127C76.9737 234.173 76.696 234.243 76.4183 234.312L76.4177 234.312L76.4172 234.313C76.1395 234.382 75.8618 234.451 75.5841 234.498L75.2135 235.609L83.3648 238.018L83.7353 236.906C83.3648 236.535 82.9943 236.165 82.5311 235.794C82.068 235.424 81.6048 235.053 81.0491 234.683L85.5878 219.399C86.3289 216.806 87.4404 215.139 88.9224 214.397C90.3118 213.564 92.0718 213.471 94.1096 214.12C95.1285 214.398 96.0547 214.861 96.7958 215.324C97.5368 215.88 98.1852 216.435 98.5557 217.176C98.9262 217.917 99.2041 218.751 99.2041 219.77C99.2041 220.789 99.0188 221.9 98.6483 223.29L93.9243 238.944H92.3496C91.8865 238.944 91.3307 238.944 90.775 239.036L90.4045 240.148ZM50.4821 221.067L43.2571 216.25L43.9055 215.324C45.2949 215.324 46.4991 215.509 47.518 215.787L61.8753 194.297L63.8204 195.594L63.6352 222.085L63.172 225.513L63.2647 225.605L64.7467 222.827L75.3063 206.987C74.5652 206.154 73.9169 205.135 73.5463 204.116L74.1947 203.189L81.4197 208.006L80.7713 208.932C80.2862 208.932 79.8011 208.862 79.2544 208.782L79.2542 208.782C79.1746 208.771 79.0937 208.759 79.0114 208.747C78.4556 208.654 77.8072 208.469 77.2514 208.284L64.4688 227.365C64.8393 227.828 65.1172 228.292 65.3951 228.847L66.2288 230.237L65.5804 231.163L59.9301 227.365L60.0227 204.486L60.3932 200.596L60.3006 200.503L58.5407 203.467L49.4632 216.991C49.8337 217.547 50.1116 218.01 50.3894 218.566C50.4858 218.758 50.5821 218.94 50.6746 219.114C50.8488 219.442 51.0094 219.745 51.1305 220.048L50.4821 221.067ZM42.794 175.031C42.1456 174.66 41.5898 174.382 41.0341 174.197L33.6239 180.218C33.1607 179.755 32.6976 179.477 32.3271 179.292C32.0075 179.052 31.688 178.95 31.4278 178.867C31.3864 178.854 31.3464 178.841 31.3082 178.828L30.3819 179.569L36.5879 187.258L37.5142 186.517C37.3753 186.192 37.2595 185.891 37.1437 185.59L37.1436 185.59L37.1434 185.589L37.1433 185.589L37.1432 185.589L37.1431 185.589C37.0275 185.288 36.9119 184.988 36.7732 184.664C36.5879 184.108 36.2174 183.46 35.8469 182.904L42.1456 177.81C42.2382 177.81 42.5161 177.902 42.794 177.995C42.9112 178.073 43.045 178.135 43.1883 178.201L43.1885 178.201C43.3847 178.291 43.5988 178.39 43.8129 178.551C44.1834 178.736 44.6465 179.014 45.0171 179.384L46.1286 180.496C47.0549 181.607 47.7033 182.904 47.9811 184.201C48.3517 185.498 48.3517 186.887 48.0738 188.276C47.7959 189.666 47.2401 191.055 46.4065 192.445C45.5728 193.741 44.3687 195.038 42.8866 196.242C41.2193 197.632 39.6447 198.558 38.07 199.114C36.4953 199.67 35.1059 199.948 33.7165 199.855C32.4197 199.762 31.1229 199.484 30.0114 198.836C28.8999 198.188 27.8809 197.354 27.0473 196.335C26.862 196.057 26.6536 195.779 26.4452 195.501C26.2368 195.224 26.0284 194.946 25.8431 194.668C25.4726 194.019 25.2874 193.649 25.1947 193.278L28.3441 187.999L27.6957 187.165C27.2326 187.35 26.7694 187.628 26.2137 187.999C25.7505 188.276 25.1948 188.647 24.639 189.017C24.1758 189.295 23.6201 189.666 23.1569 190.036C22.9672 190.188 22.7775 190.324 22.6005 190.451L22.5999 190.452L22.5993 190.452C22.3447 190.635 22.1166 190.799 21.9528 190.963C22.138 191.982 22.6012 193 23.1569 194.112C23.7127 195.224 24.5464 196.428 25.6579 197.817C26.6768 199.114 27.9736 200.225 29.363 201.152C30.845 202.078 32.4197 202.634 34.087 202.912C35.8469 203.19 37.6068 203.004 39.552 202.448C41.4972 201.893 43.4424 200.781 45.4802 199.114C47.4254 197.539 48.9074 195.965 49.9263 194.297C50.9452 192.63 51.501 190.963 51.6862 189.295C51.8715 187.628 51.6862 185.868 51.0379 184.201C50.3895 182.534 49.3706 180.866 48.0738 179.199C47.7033 178.643 47.1475 178.087 46.5917 177.624C46.036 177.161 45.3876 176.698 44.7392 176.235C44.0909 175.772 43.4426 175.401 42.7944 175.031L42.794 175.031ZM31.2155 152.8L31.1844 152.553C31.1032 151.913 31.0303 151.338 31.0303 150.762C31.0303 150.114 31.0303 149.465 31.1229 148.91L32.2344 148.632L35.2912 159.191L34.1796 159.469C33.8091 159.006 33.4386 158.543 33.1607 158.08C33.0218 157.848 32.8828 157.594 32.7439 157.339L32.7438 157.339L32.7436 157.338L32.7435 157.338L32.7434 157.338C32.6046 157.084 32.4659 156.829 32.3271 156.598L9.44805 163.174C9.54068 163.823 9.54068 164.379 9.54068 164.934C9.54068 165.212 9.51753 165.49 9.49437 165.768C9.47121 166.046 9.44805 166.324 9.44805 166.602L8.33652 166.88L7.31763 163.452C7.03975 162.433 6.66922 161.322 6.20609 160.118C5.74295 158.914 5.37244 157.802 5.09456 156.69C4.72405 155.394 4.53879 154.19 4.44617 152.893C4.35354 151.596 4.53879 150.392 4.9093 149.28C5.27982 148.169 5.92821 147.15 6.85449 146.224C7.78077 145.297 8.98493 144.649 10.5596 144.186C12.0416 143.723 13.431 143.63 14.7278 143.908C15.932 144.186 17.1361 144.742 18.0624 145.483C19.0813 146.316 19.915 147.242 20.5634 148.447C21.2118 149.651 21.7675 150.855 22.138 152.244C22.138 152.337 22.2307 152.615 22.3233 152.8C22.4159 153.078 22.5085 153.356 22.5085 153.634C22.6012 153.912 22.6938 154.282 22.6938 154.56C22.7864 154.838 22.7864 155.023 22.7864 155.208L31.2155 152.8ZM7.22499 156.876C7.31762 157.2 7.41025 157.478 7.4913 157.721C7.57235 157.964 7.64182 158.173 7.68813 158.358C7.78076 158.728 7.96602 159.099 8.15127 159.469L20.656 155.857C20.656 155.672 20.656 155.486 20.5634 155.301C20.5113 155.145 20.4885 155.018 20.4621 154.871C20.4415 154.757 20.4187 154.63 20.3781 154.467C20.3318 154.328 20.3086 154.19 20.2855 154.051C20.2623 153.912 20.2392 153.773 20.1929 153.634C20.1522 153.512 20.1294 153.408 20.1088 153.314C20.0824 153.193 20.0596 153.089 20.0076 152.985C19.7297 152.059 19.3592 151.318 18.8961 150.577C18.4329 149.836 17.7845 149.28 17.1361 148.817C16.3951 148.354 15.5615 148.076 14.6352 147.983C13.7089 147.891 12.69 147.983 11.4859 148.261C9.35544 148.91 7.96602 149.929 7.22499 151.411C6.66923 152.893 6.5766 154.745 7.22499 156.876ZM26.6065 127.431C26.5299 127.749 26.4502 128.08 26.3989 128.439L16.2098 128.902L16.1172 125.104C16.8037 124.792 17.4901 124.438 18.1482 124.099C18.467 123.934 18.7791 123.773 19.0813 123.622C20.0076 123.159 20.9338 122.603 21.8601 122.048C22.7864 121.492 23.62 120.936 24.5463 120.288C25.38 119.639 26.3062 118.898 27.2325 118.157L28.344 116.583L28.2514 111.673H27.2325L26.121 113.896C24.3611 115.286 22.6011 116.583 20.8412 117.879C19.5866 118.804 18.2849 119.681 17.0032 120.545L17.0032 120.545L17.003 120.545L17.0011 120.547L16.9989 120.548C16.4842 120.895 15.9727 121.24 15.4688 121.585C14.8204 119.825 13.8941 118.435 12.5974 117.416C11.3006 116.397 9.63327 115.934 7.68809 115.934C6.29868 115.934 5.18715 116.212 4.16824 116.675C3.14934 117.231 2.40833 117.879 1.75993 118.713C1.11154 119.547 0.648402 120.566 0.370519 121.677C0.0926361 122.881 0 124.085 0 125.382C0 126.506 0.080639 127.629 0.166678 128.828L0.185252 129.087C0.197025 129.252 0.208798 129.414 0.220381 129.573C0.299932 130.667 0.370519 131.637 0.370519 132.607L0.463138 136.127H1.6673L1.66748 136.127L1.66756 136.126C1.85273 135.663 2.0379 135.201 2.22307 134.645C2.40833 134.089 2.59358 133.533 2.68621 132.792L26.4915 132.329C26.5841 132.885 26.6767 133.348 26.862 133.904C27.0473 134.46 27.2325 135.016 27.5104 135.571H28.7146L28.5293 125.012H27.3251C27.0473 125.568 26.862 126.123 26.7694 126.679C26.7281 126.927 26.6683 127.175 26.6065 127.431ZM2.22307 127.791C2.13044 127.42 2.13044 126.864 2.13044 126.216C2.13044 124.363 2.59357 122.881 3.42722 121.677C4.35349 120.566 5.83555 119.917 7.78073 119.917C9.63328 119.917 11.2079 120.473 12.4121 121.492C13.6163 122.511 14.2647 123.993 14.2647 125.845L14.3573 128.717L2.40832 128.902C2.3157 128.624 2.22307 128.161 2.22307 127.791ZM14.8204 106.301C12.7826 105.745 11.0227 105.004 9.448 103.985C7.87333 102.966 6.57655 101.762 5.65028 100.373C4.724 98.9834 4.07561 97.4087 3.79772 95.7414C3.51984 94.0741 3.61246 92.2216 4.16823 90.2764C4.72399 88.3312 5.55764 86.6639 6.66917 85.3671C7.7807 84.0704 9.07749 83.0515 10.6522 82.3104C12.2268 81.5694 13.8941 81.1989 15.7467 81.1063C17.5992 81.0137 19.5444 81.2915 21.5822 81.7547C23.62 82.3104 25.38 83.0515 26.9546 84.0704C28.5293 85.0893 29.8261 86.2934 30.7523 87.6828C31.6786 89.0723 32.327 90.6469 32.6049 92.3142C32.8828 93.9815 32.7902 95.8341 32.2344 97.7793C31.6786 99.7244 30.845 101.392 29.7334 102.689C28.6219 103.985 27.3251 105.004 25.7505 105.745C24.1758 106.486 22.5085 106.857 20.6559 106.949C18.8034 107.042 16.8582 106.764 14.8204 106.301ZM15.9319 102.133C17.5992 102.596 19.1739 102.874 20.7486 102.874C22.3232 102.966 23.7127 102.781 25.0094 102.318C26.3062 101.947 27.4178 101.299 28.344 100.373C29.2703 99.4465 29.9187 98.335 30.2892 96.853C30.6597 95.5562 30.6597 94.2594 30.2892 93.1479C29.9187 92.0363 29.2703 90.9248 28.344 89.9985C27.4178 89.0723 26.3062 88.2386 24.9168 87.4976C23.5274 86.7566 22.0454 86.2008 20.3781 85.7377C18.7108 85.2745 17.1361 84.9966 15.5614 84.9966C13.9868 84.904 12.5973 85.0893 11.3005 85.4598C10.0038 85.8303 8.89224 86.4787 7.96597 87.405C7.03969 88.3312 6.39129 89.4428 6.02078 90.9248C5.65027 92.3142 5.65027 93.611 6.02078 94.8152C6.39129 96.0193 7.03969 97.0382 7.96597 97.9645C8.89224 98.8908 10.0038 99.6318 11.3932 100.373C12.7826 101.114 14.2646 101.67 15.9319 102.133ZM39.2741 78.3275L45.1097 68.6943L44.0908 68.1385L44.0907 68.1386C43.6276 68.509 43.1645 68.8795 42.7013 69.3427C42.2382 69.8058 41.7751 70.2689 41.3119 70.8247L20.9339 58.4126L24.0832 53.2255L30.104 54.4296L30.6598 53.5033C30.1966 53.1328 29.7335 52.7623 29.1777 52.3918C28.767 52.1572 28.3935 51.8853 28.0337 51.6234L28.0336 51.6234L28.0336 51.6234L28.0334 51.6233C27.8252 51.4717 27.6215 51.3235 27.4178 51.1877C26.862 50.7245 26.3063 50.354 25.7505 49.9835C25.5186 49.8289 25.3028 49.6743 25.0964 49.5264L25.0962 49.5262C24.8081 49.3198 24.5383 49.1265 24.2684 48.9646L12.1342 68.8795C12.3005 68.9793 12.4786 69.079 12.6644 69.183L12.6646 69.1831C12.9964 69.3689 13.3527 69.5683 13.7089 69.8058C14.0331 69.9911 14.3341 70.1532 14.6352 70.3152C14.9362 70.4773 15.2373 70.6395 15.5615 70.8247C15.8857 70.9636 16.1867 71.1257 16.4877 71.2878C16.7888 71.4499 17.0898 71.612 17.414 71.751C17.7114 71.8784 17.9893 72.0059 18.2477 72.1244C18.5527 72.2643 18.8306 72.3917 19.0813 72.492L19.6371 71.6583L15.8393 66.8417L18.9887 61.5619L39.3667 73.974C39.1563 74.4651 38.999 74.9562 38.8545 75.407L38.8544 75.4074C38.8082 75.5517 38.7633 75.6919 38.7184 75.8266C38.6841 75.9465 38.6498 76.0632 38.6162 76.1779C38.4678 76.6837 38.3307 77.1506 38.2552 77.6791L39.2741 78.3275ZM53.1682 58.5978L46.7769 64.8039L45.9432 63.9702C46.3137 62.9513 46.7769 62.1177 47.3326 61.284L36.0321 35.3483L36.8657 34.5146L62.6162 46.2784L64.0056 45.4447C64.4687 45.1668 64.9319 44.9816 65.4876 44.8889L66.3213 45.7226L58.9111 52.9475L58.0774 52.1139C58.2154 51.7001 58.4046 51.3377 58.607 50.9501L58.6071 50.95C58.6765 50.817 58.7475 50.6811 58.8185 50.5392C58.8925 50.4159 58.9665 50.286 59.0422 50.153C59.2509 49.7867 59.4729 49.397 59.7447 49.0572L52.705 45.7226L45.9432 52.3918L49.1852 59.4315C50.1115 58.7831 51.1304 58.2273 52.3345 57.6715L53.1682 58.5978ZM45.0169 50.354L50.7599 44.7037L42.516 40.8133L39.5519 38.8681L39.4593 38.9608L41.2192 42.2027L45.0169 50.354ZM177.635 82.5114L179.925 85.6563L67.2304 167.724L64.9401 164.579L177.635 82.5114Z" 
    />
</svg>
